<?xml version="1.0" encoding="utf-8"?>
<!-- Generator: Adobe Illustrator 22.0.0, SVG Export Plug-In . SVG Version: 6.00 Build 0)  -->
<svg version="1.1" id="Ñëîé_1" xmlns="http://www.w3.org/2000/svg" xmlns:xlink="http://www.w3.org/1999/xlink" x="0px" y="0px"
	 viewBox="0 0 700 400" style="enable-background:new 0 0 700 400;" xml:space="preserve">
<style type="text/css">
	.st0{fill:url(#SVGID_1_);}
	.st1{opacity:0.3;}
	.st2{fill:#FFFFFF;}
	.st3{opacity:0.2;fill:#33ADFF;}
	.st4{opacity:0.31;fill:url(#SVGID_2_);}
	.st5{opacity:0.5;fill:#242993;}
	.st6{fill:url(#SVGID_3_);}
	.st7{fill:url(#SVGID_4_);}
	.st8{fill:#242993;}
	.st9{fill:#4553C7;}
	.st10{fill:#42FFFF;}
	.st11{fill:url(#SVGID_5_);}
	.st12{fill:url(#SVGID_6_);}
	.st13{fill:url(#SVGID_7_);}
	.st14{opacity:0.51;}
	.st15{fill:#5778FF;}
	.st16{fill:#BCD5FF;}
	.st17{fill:#E9FFFF;}
	.st18{opacity:0.11;}
	.st19{opacity:0.6;fill:#242993;}
	.st20{fill:url(#SVGID_10_);}
	.st21{fill:url(#SVGID_11_);}
	.st22{opacity:0.96;fill:url(#SVGID_12_);}
	.st23{opacity:0.8;fill:#4553C7;}
	.st24{fill:url(#SVGID_13_);}
	.st25{fill:url(#SVGID_14_);}
	.st26{fill:url(#SVGID_15_);}
	.st27{fill:url(#SVGID_16_);}
	.st28{fill:#162184;}
	.st29{fill:#485DCE;}
	.st30{fill:#FCE8EE;}
	.st31{fill:#F0FFFF;}
	.st32{fill:#AA9AAC;}
	.st33{fill:#C4E3FF;}
	.st34{fill:#E2C8CF;}
	.st35{fill:#1B4263;}
	.st36{fill:#938496;}
	.st37{fill:url(#SVGID_17_);}
	.st38{opacity:0.32;}
	.st39{fill:#DD821F;}
	.st40{fill:#FFD85A;}
	.st41{fill:#F9BF30;}
	.st42{fill:#F2B42A;}
</style>
<linearGradient id="SVGID_1_" gradientUnits="userSpaceOnUse" x1="621.123" y1="-17.4102" x2="-117.6245" y2="574.9824">
	<stop  offset="0" style="stop-color:#4482CC"/>
	<stop  offset="3.720858e-02" style="stop-color:#447ECC"/>
	<stop  offset="0.4677" style="stop-color:#4553C7"/>
	<stop  offset="0.5964" style="stop-color:#3B44BC"/>
	<stop  offset="0.8439" style="stop-color:#2B2DAB"/>
	<stop  offset="1" style="stop-color:#2525A5"/>
</linearGradient>
<rect x="0" class="st0" width="700" height="400"/>
<g class="st1">
	<path class="st2" d="M588.3,254.8c-0.1,0-0.2,0-0.3-0.1l-122.2-70.6c-2.3-1.3-3.5-3.1-3.5-5c0-1.9,1.2-3.7,3.5-5l79.6-46
		c1.8-1.1,2.9-2.4,2.9-3.9c0-1.4-1-2.8-2.9-3.9L410.5,42.7c-4.1-2.3-10.7-2.3-14.7,0l-45.2,26.1c-1.8,1.1-2.9,2.4-2.9,3.9
		s1,2.8,2.9,3.9l67.2,38.8c2.3,1.3,3.5,3.1,3.5,5c0,1.9-1.2,3.7-3.5,5l-100.5,58c-4.4,2.5-11.6,2.5-16,0l-66.7-38.5
		c-0.3-0.2-0.4-0.6-0.2-0.9c0.2-0.3,0.6-0.4,0.9-0.2l66.7,38.5c4.1,2.3,10.7,2.3,14.7,0l100.5-58c1.8-1.1,2.9-2.4,2.9-3.9
		c0-1.4-1-2.8-2.9-3.9L350,77.6c-2.3-1.3-3.5-3.1-3.5-5c0-1.9,1.2-3.7,3.5-5l45.2-26.1c4.4-2.5,11.6-2.5,16,0L546,119.4
		c2.3,1.3,3.5,3.1,3.5,5c0,1.9-1.2,3.7-3.5,5l-79.6,46c-1.8,1.1-2.9,2.4-2.9,3.9c0,1.4,1,2.8,2.9,3.9l122.2,70.6
		c0.3,0.2,0.4,0.6,0.2,0.9C588.7,254.7,588.5,254.8,588.3,254.8z"/>
	<path class="st2" d="M559.1,201.9c-0.2,0-0.4-0.1-0.5-0.3c-0.2-0.3-0.1-0.7,0.2-0.9l118.7-68.5c2.5-1.5,4-3.4,4-5.4
		c0-2-1.4-3.9-4-5.4L563.7,55.7c-5.5-3.2-14.5-3.2-20,0l-25.4,14.7c-0.3,0.2-0.7,0.1-0.9-0.2c-0.2-0.3-0.1-0.7,0.2-0.9l25.4-14.7
		c5.8-3.4,15.4-3.4,21.2,0l113.8,65.7c3,1.7,4.6,4,4.6,6.5c0,2.5-1.6,4.8-4.6,6.5l-118.7,68.5C559.4,201.9,559.3,201.9,559.1,201.9z
		"/>
	<path class="st2" d="M276.6,391.5c-3.3,0-6.5-0.7-9-2.1L105,295.5c-2.5-1.5-3.9-3.4-3.9-5.6c0-2.1,1.4-4.1,3.9-5.6l55.5-32
		c5-2.9,13-2.9,18,0L281,311.6c4.6,2.7,12.1,2.7,16.7,0l138.4-79.9c2.1-1.2,3.3-2.8,3.3-4.5c0-1.7-1.2-3.3-3.3-4.5l-40.9-23.6
		c-4.6-2.7-12.1-2.7-16.7,0l-80.1,46.3c-5,2.9-13,2.9-18,0l-111.9-64.6c-4.6-2.7-12.1-2.7-16.7,0l-119.5,69
		c-0.3,0.2-0.7,0.1-0.9-0.2c-0.2-0.3-0.1-0.7,0.2-0.9l119.5-69c5-2.9,13-2.9,18,0L281,244.3c4.6,2.7,12.1,2.7,16.7,0l80.1-46.3
		c5-2.9,13-2.9,18,0l40.9,23.6c2.5,1.5,3.9,3.4,3.9,5.6c0,2.1-1.4,4.1-3.9,5.6l-138.4,79.9c-5,2.9-13,2.9-18,0l-102.6-59.2
		c-4.6-2.7-12.1-2.7-16.7,0l-55.5,32c-2.1,1.2-3.3,2.8-3.3,4.5c0,1.7,1.2,3.3,3.3,4.5l162.6,93.9c4.6,2.7,12.1,2.7,16.7,0
		l210.4-121.5c0.3-0.2,0.7-0.1,0.9,0.2c0.2,0.3,0.1,0.7-0.2,0.9L285.6,389.3C283.1,390.8,279.8,391.5,276.6,391.5z"/>
	<path class="st2" d="M432.1,345c-0.1,0-0.2,0-0.3-0.1l-35-20.2c-0.3-0.2-0.4-0.6-0.2-0.9c0.2-0.3,0.6-0.4,0.9-0.2l35,20.2
		c0.3,0.2,0.4,0.6,0.2,0.9C432.6,344.9,432.4,345,432.1,345z"/>
	<path class="st2" d="M336.6,123c-0.2,0-0.4-0.1-0.5-0.3c-0.2-0.3-0.1-0.7,0.2-0.9l46-26.6c0.3-0.2,0.7-0.1,0.9,0.2
		c0.2,0.3,0.1,0.7-0.2,0.9l-46,26.6C336.8,122.9,336.7,123,336.6,123z"/>
	<path class="st2" d="M680.9,201.4c-0.1,0-0.2,0-0.3-0.1l-60.4-34.9c-0.3-0.2-0.4-0.6-0.2-0.9c0.2-0.3,0.6-0.4,0.9-0.2l60.4,34.9
		c0.3,0.2,0.4,0.6,0.2,0.9C681.3,201.2,681.1,201.4,680.9,201.4z"/>
	<path class="st2" d="M337,134.7h-20.7c-0.3,0-0.6-0.3-0.6-0.6v-12c0-0.2,0.1-0.3,0.2-0.4c0.1-0.1,0.3-0.2,0.4-0.2l0,0l20.7,0
		c0.3,0,0.6,0.3,0.6,0.6l0,12c0,0.2-0.1,0.3-0.2,0.4C337.3,134.6,337.2,134.7,337,134.7z M316.9,133.4h19.5l0-10.7l-19.5,0V133.4z"
		/>
	<path class="st2" d="M584.9,108.4h-20.7c-0.3,0-0.6-0.3-0.6-0.6v-12c0-0.3,0.3-0.6,0.6-0.6h20.7c0.3,0,0.6,0.3,0.6,0.6v12
		C585.5,108.2,585.2,108.4,584.9,108.4z M564.8,107.2h19.5V96.5h-19.5V107.2z"/>
	<path class="st2" d="M281.5,363.7c-4,0-8-0.9-11.1-2.6c-3.1-1.8-4.8-4.2-4.8-6.8c0-2.6,1.7-5,4.8-6.8c6.1-3.5,16.1-3.5,22.2,0
		c3.1,1.8,4.8,4.2,4.8,6.8c0,2.6-1.7,5-4.8,6.8C289.6,362.8,285.6,363.7,281.5,363.7z M281.5,346.1c-3.8,0-7.6,0.8-10.5,2.5
		c-2.7,1.5-4.2,3.6-4.2,5.7c0,2.1,1.5,4.1,4.2,5.7c5.8,3.3,15.2,3.3,20.9,0c2.7-1.5,4.2-3.6,4.2-5.7c0-2.1-1.5-4.1-4.2-5.7h0
		C289.1,346.9,285.3,346.1,281.5,346.1z"/>
	<path class="st2" d="M242.8,341.3c-4,0-8-0.9-11.1-2.6c-3.1-1.8-4.8-4.2-4.8-6.8c0-2.6,1.7-5,4.8-6.8c6.1-3.5,16.1-3.5,22.2,0h0
		c3.1,1.8,4.8,4.2,4.8,6.8c0,2.6-1.7,5-4.8,6.8C250.8,340.4,246.8,341.3,242.8,341.3z M242.8,323.7c-3.8,0-7.6,0.8-10.5,2.5
		c-2.7,1.5-4.2,3.6-4.2,5.7c0,2.1,1.5,4.1,4.2,5.7c5.8,3.3,15.2,3.3,20.9,0c2.7-1.5,4.2-3.6,4.2-5.7c0-2.1-1.5-4.1-4.2-5.7
		C250.4,324.6,246.6,323.7,242.8,323.7z"/>
	<path class="st2" d="M204.1,319c-4,0-8-0.9-11.1-2.6c-3.1-1.8-4.8-4.2-4.8-6.8c0-2.6,1.7-5,4.8-6.8c6.1-3.5,16.1-3.5,22.2,0
		c0,0,0,0,0,0c3.1,1.8,4.8,4.2,4.8,6.8c0,2.6-1.7,5-4.8,6.8C212.1,318.1,208.1,319,204.1,319z M204.1,301.4c-3.8,0-7.6,0.8-10.5,2.5
		c-2.7,1.5-4.2,3.6-4.2,5.7c0,2.1,1.5,4.1,4.2,5.7c5.8,3.3,15.2,3.3,20.9,0c2.7-1.5,4.2-3.6,4.2-5.7c0-2.1-1.5-4.1-4.2-5.7
		C211.6,302.2,207.8,301.4,204.1,301.4z"/>
	<path class="st2" d="M165.3,296.6c-4,0-8-0.9-11.1-2.6c-3.1-1.8-4.8-4.2-4.8-6.8c0-2.6,1.7-5,4.8-6.8c6.1-3.5,16.1-3.5,22.2,0l0,0
		c3.1,1.8,4.8,4.2,4.8,6.8c0,2.6-1.7,5-4.8,6.8C173.3,295.7,169.3,296.6,165.3,296.6z M165.3,279c-3.8,0-7.6,0.8-10.5,2.5
		c-2.7,1.5-4.2,3.6-4.2,5.7c0,2.1,1.5,4.1,4.2,5.7c5.8,3.3,15.2,3.3,20.9,0c2.7-1.5,4.2-3.6,4.2-5.7c0-2.1-1.5-4.1-4.2-5.7l0,0
		C172.9,279.8,169.1,279,165.3,279z"/>
	<path class="st2" d="M176.1,281.6c-0.2,0-0.4-0.1-0.5-0.3c-0.2-0.3-0.1-0.7,0.2-0.9l25.3-14.6c0.3-0.2,0.7-0.1,0.9,0.2
		c0.2,0.3,0.1,0.7-0.2,0.9l-25.3,14.6C176.3,281.5,176.2,281.6,176.1,281.6z"/>
	<path class="st2" d="M315,372.3c-0.1,0-0.2,0-0.3-0.1l-21-12.3c-0.3-0.2-0.4-0.6-0.2-0.9c0.2-0.3,0.6-0.4,0.9-0.2l21,12.3
		c0.3,0.2,0.4,0.6,0.2,0.9C315.4,372.1,315.2,372.3,315,372.3z"/>
	<path class="st2" d="M452.9,357h-20.7c-0.3,0-0.6-0.3-0.6-0.6l0-12c0-0.2,0.1-0.3,0.2-0.4c0.1-0.1,0.3-0.2,0.4-0.2h20.7
		c0.3,0,0.6,0.3,0.6,0.6v12C453.5,356.7,453.2,357,452.9,357z M432.8,355.7h19.5V345h-19.5L432.8,355.7z"/>
</g>
<polygon class="st3" points="0,313.7 534.4,0 0,0 "/>
<linearGradient id="SVGID_2_" gradientUnits="userSpaceOnUse" x1="8.854375e-06" y1="159.8333" x2="545.7824" y2="159.8333">
	<stop  offset="0" style="stop-color:#2525A5"/>
	<stop  offset="1" style="stop-color:#2525A5"/>
</linearGradient>
<polygon class="st4" points="0,319.7 545.8,0 534.4,0 0,313.7 "/>
<path class="st5" d="M359.1,390.8l-90.5-52.2c-1.7-1-1.5-2.7,0.5-3.8l220.4-127.2l63.5,74.9L365.8,390.5
	C363.8,391.6,360.8,391.7,359.1,390.8z"/>
<g>
	<path class="st5" d="M628,75.7l-41.8-24.1c-0.9-0.5-0.8-1.4,0.3-2l12.3-7.1l45.1,26l-12.3,7.1C630.5,76.2,628.9,76.3,628,75.7z"/>
	<g>
		<linearGradient id="SVGID_3_" gradientUnits="userSpaceOnUse" x1="668.1964" y1="18.243" x2="598.0186" y2="74.5177">
			<stop  offset="0" style="stop-color:#BCD5FF"/>
			<stop  offset="0.151" style="stop-color:#A3BEFF"/>
			<stop  offset="0.3866" style="stop-color:#82A0FF"/>
			<stop  offset="0.6124" style="stop-color:#6A8AFF"/>
			<stop  offset="0.8221" style="stop-color:#5C7DFF"/>
			<stop  offset="1" style="stop-color:#5778FF"/>
		</linearGradient>
		<path class="st6" d="M687.4,42.9v-8.3l-13.6,0l-30.1-17.4c-0.7-0.4-2-0.4-2.9,0.1l-30,17.3l-13.5,0l0,8.4h0c0,0.3,0.2,0.5,0.5,0.7
			l43.2,24.9c0.7,0.4,2,0.4,2.9-0.1l42.8-24.7C687.2,43.5,687.4,43.2,687.4,42.9z"/>
		
			<linearGradient id="SVGID_4_" gradientUnits="userSpaceOnUse" x1="174.3624" y1="288.2169" x2="110.5692" y2="339.3719" gradientTransform="matrix(0.866 0.5 -1 0.5774 818.6784 -218.187)">
			<stop  offset="0" style="stop-color:#C0D6FF"/>
			<stop  offset="0.2978" style="stop-color:#C5DBFF"/>
			<stop  offset="0.6488" style="stop-color:#D3E9FF"/>
			<stop  offset="1" style="stop-color:#E9FFFF"/>
		</linearGradient>
		<path class="st7" d="M641.1,60.3l-43.2-24.9c-0.7-0.4-0.6-1.2,0.2-1.7L640.9,9c0.9-0.5,2.1-0.5,2.9-0.1l43.2,24.9
			c0.7,0.4,0.6,1.2-0.2,1.7L644,60.1C643.1,60.6,641.8,60.7,641.1,60.3z"/>
		<path class="st8" d="M641.2,57.3l-38.3-22.1c-0.7-0.4-0.6-1,0.2-1.5L641,11.9c0.8-0.4,1.9-0.5,2.6-0.1l38.3,22.1
			c0.7,0.4,0.6,1-0.2,1.5l-37.9,21.9C643,57.7,641.9,57.7,641.2,57.3z"/>
		<path class="st9" d="M641.3,55.5l-35.2-20.3c-0.6-0.3-0.5-1,0.2-1.4l34.8-20.1c0.7-0.4,1.7-0.4,2.3-0.1l35.2,20.3
			c0.6,0.3,0.5,1-0.2,1.4l-34.8,20.1C643,55.8,641.9,55.8,641.3,55.5z"/>
	</g>
	<g>
		<polygon class="st10" points="641.6,33.2 637.5,30.8 639.7,29.5 643.8,31.9 		"/>
		<polygon class="st10" points="649.2,32.9 645.1,35.3 642.9,34 647,31.6 		"/>
		<polygon class="st10" points="640.7,33.8 638.4,35.1 636.2,33.8 638.4,32.5 		"/>
		<polygon class="st10" points="648.4,38.2 646.2,39.5 639.7,35.8 642,34.5 		"/>
	</g>
</g>
<g>
	<g>
		<g>
			<g>
				<g>
					
						<linearGradient id="SVGID_5_" gradientUnits="userSpaceOnUse" x1="104.5775" y1="283.4958" x2="104.5775" y2="10.3351" gradientTransform="matrix(-1 0 0 1 614.3235 0)">
						<stop  offset="0" style="stop-color:#5778FF"/>
						<stop  offset="0.1779" style="stop-color:#5C7DFF"/>
						<stop  offset="0.3876" style="stop-color:#6A8AFF"/>
						<stop  offset="0.6134" style="stop-color:#82A0FF"/>
						<stop  offset="0.849" style="stop-color:#A3BEFF"/>
						<stop  offset="1" style="stop-color:#BCD5FF"/>
					</linearGradient>
					<path class="st11" d="M456.8,16.6l10.6-6.1l0,0c0.4-0.2,1-0.2,1.6,0.1l91.2,52.6c1.4,0.8,2.5,2.9,2.5,4.7v207.4
						c0,1-0.3,1.7-0.9,2l0,0l-10.6,6.1L551,272l-82-47.3c-1.4-0.8-2.5-2.9-2.5-4.7V22c-0.2,0.7-0.4,1.2-0.4,1.2
						C466,23.2,456.8,16.6,456.8,16.6z"/>
					
						<linearGradient id="SVGID_6_" gradientUnits="userSpaceOnUse" x1="67.5895" y1="83.1473" x2="67.5895" y2="63.5782" gradientTransform="matrix(-1 0 0 1 614.3235 0)">
						<stop  offset="0" style="stop-color:#C0D6FF"/>
						<stop  offset="0.2978" style="stop-color:#C5DBFF"/>
						<stop  offset="0.6488" style="stop-color:#D3E9FF"/>
						<stop  offset="1" style="stop-color:#E9FFFF"/>
					</linearGradient>
					<path class="st12" d="M562.6,67.2L535,83.1l-4.2-2.4l29.7-17.2C561.6,64.4,562.4,65.8,562.6,67.2z"/>
					
						<linearGradient id="SVGID_7_" gradientUnits="userSpaceOnUse" x1="135.3743" y1="462.2542" x2="135.3743" y2="276.9154" gradientTransform="matrix(-0.866 -0.5 0 1.1547 621.2996 -209.0673)">
						<stop  offset="0" style="stop-color:#C0D6FF"/>
						<stop  offset="0.2978" style="stop-color:#C5DBFF"/>
						<stop  offset="0.6488" style="stop-color:#D3E9FF"/>
						<stop  offset="1" style="stop-color:#E9FFFF"/>
					</linearGradient>
					<path class="st13" d="M458.5,230.7l91.2,52.6c1.4,0.8,2.5,0,2.5-1.9V74.1c0-1.8-1.1-4-2.5-4.7l-91.2-52.6
						c-1.4-0.8-2.5,0-2.5,1.9v207.4C456,227.8,457.1,229.9,458.5,230.7z"/>
					<polygon class="st8" points="456,214.6 552.1,270.1 552.1,85.4 456,29.9 					"/>
					<polygon class="st8" points="456,214.6 552.1,270.1 552.1,85.4 456,29.9 					"/>
					<g class="st14">
						<polygon class="st9" points="456,208.1 552.1,263.6 552.1,91.3 456,35.8 						"/>
					</g>
					<path class="st15" d="M496.6,48L514,58.1c0.5,0.3,0.9,0.4,1.1-0.1c0.1-0.2,0.1-0.4,0.1-0.6l0,0c0-0.9-0.6-2-1.2-2.3l-17.6-10.1
						c-0.1,0-0.1-0.1-0.2-0.1c-0.6,0.2-0.6,0.3-0.6,1.1l0.1,0.2C495.7,47.1,495.9,47.6,496.6,48z"/>
					<path class="st16" d="M496.2,44.8c-0.1,0.2-0.1,0.4-0.1,0.6c0,0.9,0.6,2,1.2,2.3l17.6,10.1c0.1,0,0.1,0,0.2,0.1
						c-0.2,0.5-0.6,0.6-1.1,0.3l-17.6-10.1c-0.7-0.4-1.2-1.4-1.2-2.3C495.2,45,495.6,44.6,496.2,44.8z"/>
					<g>
						<path class="st17" d="M557.7,91.3l0.2-0.1c0.3-0.2,0.6-0.2,0.8-0.1l0,0l0.7,0.4l-0.4,0c0.1,0.2,0.1,0.4,0.1,0.6v12
							c0,1-0.6,2.1-1.3,2.5l-0.2,0.1c-0.1,0.1-0.2,0.1-0.3,0.1l0.2,0.4l-0.8-0.5l0,0c-0.3-0.2-0.5-0.5-0.5-1.1v-12
							C556.4,92.8,557,91.7,557.7,91.3z"/>
						<path class="st16" d="M558.5,107.3l0.2-0.1c0.7-0.4,1.3-1.6,1.3-2.5v-12c0-1-0.6-1.4-1.3-1l-0.2,0.1c-0.7,0.4-1.3,1.6-1.3,2.5
							v12C557.2,107.2,557.8,107.7,558.5,107.3z"/>
					</g>
					<g>
						<path class="st17" d="M557.7,109.6l0.2-0.1c0.3-0.2,0.6-0.2,0.8-0.1l0,0l0.7,0.4l-0.4,0c0.1,0.2,0.1,0.4,0.1,0.6v12
							c0,1-0.6,2.1-1.3,2.5l-0.2,0.1c-0.1,0.1-0.2,0.1-0.3,0.1l0.2,0.4l-0.8-0.5l0,0c-0.3-0.2-0.5-0.5-0.5-1.1v-12
							C556.4,111.2,557,110,557.7,109.6z"/>
						<path class="st16" d="M558.5,125.6l0.2-0.1c0.7-0.4,1.3-1.6,1.3-2.5v-12c0-1-0.6-1.4-1.3-1l-0.2,0.1c-0.7,0.4-1.3,1.6-1.3,2.5
							v12C557.2,125.6,557.8,126,558.5,125.6z"/>
					</g>
				</g>
			</g>
			<g class="st18">
				<defs>
					<polygon id="SVGID_8_" class="st18" points="456,208.1 552.1,263.6 552.1,91.3 456,35.8 					"/>
				</defs>
				<clipPath id="SVGID_9_">
					<use xlink:href="#SVGID_8_"  style="overflow:visible;"/>
				</clipPath>
			</g>
			<path class="st19" d="M456,225.9V109c3.5-9.8,10.6-19.3,18.8-24l0,0l64.1,37c-11.7,6.8-21.2,23.2-21.2,36.7v102.4
				c0,1.2-0.1,2.3-0.3,3.5l-59-34C457.1,229.9,456,227.8,456,225.9z"/>
			<g>
				<g>
					
						<linearGradient id="SVGID_10_" gradientUnits="userSpaceOnUse" x1="84.7405" y1="145.7026" x2="127.9886" y2="67.8281" gradientTransform="matrix(-1 0 0 1 614.3235 0)">
						<stop  offset="0" style="stop-color:#5778FF"/>
						<stop  offset="3.979178e-02" style="stop-color:#5C7DFF"/>
						<stop  offset="8.669901e-02" style="stop-color:#6A8AFF"/>
						<stop  offset="0.1372" style="stop-color:#82A0FF"/>
						<stop  offset="0.1899" style="stop-color:#A3BEFF"/>
						<stop  offset="0.2237" style="stop-color:#BCD5FF"/>
					</linearGradient>
					<path class="st20" d="M456.7,72.2l6.5-3.8v0c0.1-0.1,0.2-0.1,0.3,0l81.7,47.2c0.3,0.2,0.5,0.6,0.5,0.9V132
						c0,0.2-0.1,0.3-0.1,0.4l0,0l0,0c0,0,0,0,0,0l-6.6,3.8l-0.1-7.5l-75.4-43.5c-0.3-0.2-0.5-0.6-0.5-0.9v-5.3L456.7,72.2z"/>
					
						<linearGradient id="SVGID_11_" gradientUnits="userSpaceOnUse" x1="137.8704" y1="145.9788" x2="109.0844" y2="89.7054" gradientTransform="matrix(-1 0 0 1 614.3235 0)">
						<stop  offset="0" style="stop-color:#C0D6FF"/>
						<stop  offset="0.2978" style="stop-color:#C5DBFF"/>
						<stop  offset="0.6488" style="stop-color:#D3E9FF"/>
						<stop  offset="1" style="stop-color:#E9FFFF"/>
					</linearGradient>
					<path class="st21" d="M457,88.9l81.7,47.2c0.3,0.2,0.5,0,0.5-0.4v-15.4c0-0.4-0.2-0.8-0.5-0.9L457,72.2c-0.3-0.2-0.5,0-0.5,0.4
						V88C456.5,88.3,456.7,88.8,457,88.9z"/>
					<path class="st19" d="M468.3,85.8l63.6,37.4c-2,1.7-3.8,3.6-5.5,5.8l-64.1-37C464.1,89.7,466.1,87.6,468.3,85.8z"/>
					<path class="st8" d="M459.3,84.3l77.1,44.5c0.2,0.1,0.3,0,0.3-0.2v-3.9c0-0.2-0.1-0.5-0.3-0.6l-77.1-44.5
						c-0.2-0.1-0.3,0-0.3,0.2v3.9C459,83.9,459.1,84.2,459.3,84.3z"/>
					<path class="st9" d="M459.3,79.5l1.6,0.9v2.1c0,0.2,0.1,0.5,0.3,0.6l75.5,43.6v1.8c0,0.2-0.1,0.4-0.3,0.2l-77.1-44.5
						c-0.2-0.1-0.3-0.4-0.3-0.6v-3.9C459,79.5,459.1,79.4,459.3,79.5z"/>
				</g>
				
					<linearGradient id="SVGID_12_" gradientUnits="userSpaceOnUse" x1="179.7833" y1="264.5574" x2="89.579" y2="104.7237" gradientTransform="matrix(-1 0 0 1 614.3235 0)">
					<stop  offset="0" style="stop-color:#C0D6FF"/>
					<stop  offset="0.1196" style="stop-color:#D0E6FF"/>
					<stop  offset="0.2627" style="stop-color:#E9FFFF"/>
					<stop  offset="0.5143" style="stop-color:#C0D6FF"/>
					<stop  offset="0.6239" style="stop-color:#D0E6FF"/>
					<stop  offset="0.755" style="stop-color:#E9FFFF"/>
					<stop  offset="1" style="stop-color:#C0D6FF"/>
				</linearGradient>
				<path class="st22" d="M491.1,290.9l-64.1-37l0,0c10-5.8,18-19.7,18-31.3V120.2c0-13.5,9.5-30,21.2-36.7l0,0l64.1,37h0
					c-11.7,6.8-21.2,23.2-21.2,36.7v102.4C509.1,271.1,501.1,285.1,491.1,290.9L491.1,290.9z"/>
				<path class="st23" d="M466.2,83.5l64.1,37c-0.5,0.3-1,0.6-1.5,1l0,0l-64.1-37C465.2,84.1,465.7,83.8,466.2,83.5z"/>
			</g>
		</g>
		<g>
			<polygon class="st10" points="538.4,161.1 540.9,162.6 540.9,160.9 538.4,159.4 			"/>
			<polygon class="st10" points="538.4,172.6 540.9,174 540.9,164.1 538.4,162.6 			"/>
			<polygon class="st10" points="538.4,178 540.9,179.5 540.9,175.6 538.4,174.1 			"/>
			<polygon class="st10" points="538.4,183.7 540.9,185.2 540.9,181.2 538.4,179.8 			"/>
			<polygon class="st10" points="534.6,164.4 537.2,165.9 537.2,161.9 534.6,160.5 			"/>
			<polygon class="st10" points="534.6,171.9 537.2,173.4 537.2,167.6 534.6,166.1 			"/>
			<polygon class="st10" points="534.6,178.9 537.2,180.3 537.2,175.4 534.6,173.9 			"/>
			<polygon class="st10" points="538.4,189.4 540.9,190.9 540.9,186.9 538.4,185.5 			"/>
			<polygon class="st10" points="534.6,158.9 537.2,160.4 537.2,158.7 534.6,157.2 			"/>
		</g>
		<polygon class="st10" points="536.5,193.8 540.9,196.4 540.9,194.7 536.5,192.2 		"/>
	</g>
</g>
<g>
	<path class="st5" d="M150.1,319.5l-41.8-24.1c-0.9-0.5-0.8-1.4,0.3-2l12.3-7.1l45.1,26l-12.3,7.1C152.6,320,151,320,150.1,319.5z"
		/>
	<g>
		<linearGradient id="SVGID_13_" gradientUnits="userSpaceOnUse" x1="190.3009" y1="261.9963" x2="120.1232" y2="318.2709">
			<stop  offset="0" style="stop-color:#BCD5FF"/>
			<stop  offset="0.151" style="stop-color:#A3BEFF"/>
			<stop  offset="0.3866" style="stop-color:#82A0FF"/>
			<stop  offset="0.6124" style="stop-color:#6A8AFF"/>
			<stop  offset="0.8221" style="stop-color:#5C7DFF"/>
			<stop  offset="1" style="stop-color:#5778FF"/>
		</linearGradient>
		<path class="st24" d="M209.5,286.6v-8.3l-13.6,0l-30.1-17.4c-0.7-0.4-2-0.4-2.9,0.1l-30,17.3l-13.5,0l0,8.4h0
			c0,0.3,0.2,0.5,0.5,0.7l43.2,24.9c0.7,0.4,2,0.4,2.9-0.1l42.8-24.7C209.3,287.3,209.5,286.9,209.5,286.6z"/>
		
			<linearGradient id="SVGID_14_" gradientUnits="userSpaceOnUse" x1="142.1797" y1="738.2421" x2="78.3866" y2="789.3971" gradientTransform="matrix(0.866 0.5 -1 0.5774 818.6784 -218.187)">
			<stop  offset="0" style="stop-color:#C0D6FF"/>
			<stop  offset="0.2978" style="stop-color:#C5DBFF"/>
			<stop  offset="0.6488" style="stop-color:#D3E9FF"/>
			<stop  offset="1" style="stop-color:#E9FFFF"/>
		</linearGradient>
		<path class="st25" d="M163.2,304L120,279.1c-0.7-0.4-0.6-1.2,0.2-1.7l42.8-24.7c0.9-0.5,2.1-0.5,2.9-0.1l43.2,24.9
			c0.7,0.4,0.6,1.2-0.2,1.7l-42.8,24.7C165.2,304.4,163.9,304.4,163.2,304z"/>
		<path class="st8" d="M163.3,301.1L125,279c-0.7-0.4-0.6-1,0.2-1.5l37.9-21.9c0.8-0.4,1.9-0.5,2.6-0.1l38.3,22.1
			c0.7,0.4,0.6,1-0.2,1.5L165.9,301C165.1,301.4,164,301.5,163.3,301.1z"/>
		<path class="st9" d="M163.4,299.2l-35.2-20.3c-0.6-0.3-0.5-1,0.2-1.4l34.8-20.1c0.7-0.4,1.7-0.4,2.3-0.1l35.2,20.3
			c0.6,0.3,0.5,1-0.2,1.4l-34.8,20.1C165.1,299.5,164,299.6,163.4,299.2z"/>
	</g>
	<g>
		<polygon class="st10" points="163.7,277 159.6,274.6 161.8,273.3 166,275.7 		"/>
		<polygon class="st10" points="171.4,276.6 167.2,279 165,277.7 169.1,275.3 		"/>
		<polygon class="st10" points="162.8,277.5 160.5,278.8 158.3,277.5 160.5,276.2 		"/>
		<polygon class="st10" points="170.5,282 168.3,283.3 161.8,279.6 164.1,278.3 		"/>
	</g>
</g>
<g>
	<path class="st5" d="M638.1,224.5l-41.8-24.1c-0.9-0.5-0.8-1.4,0.3-2l12.3-7.1l45.1,26l-12.3,7.1C640.6,225,639,225,638.1,224.5z"
		/>
	<g>
		<linearGradient id="SVGID_15_" gradientUnits="userSpaceOnUse" x1="678.3347" y1="166.9996" x2="608.1569" y2="223.2743">
			<stop  offset="0" style="stop-color:#BCD5FF"/>
			<stop  offset="0.151" style="stop-color:#A3BEFF"/>
			<stop  offset="0.3866" style="stop-color:#82A0FF"/>
			<stop  offset="0.6124" style="stop-color:#6A8AFF"/>
			<stop  offset="0.8221" style="stop-color:#5C7DFF"/>
			<stop  offset="1" style="stop-color:#5778FF"/>
		</linearGradient>
		<path class="st26" d="M697.6,191.6v-8.3l-13.6,0l-30.1-17.4c-0.7-0.4-2-0.4-2.9,0.1l-30,17.3l-13.5,0l0,8.4h0
			c0,0.3,0.2,0.5,0.5,0.7l43.2,24.9c0.7,0.4,2,0.4,2.9-0.1l42.8-24.7C697.3,192.3,697.6,191.9,697.6,191.6z"/>
		
			<linearGradient id="SVGID_16_" gradientUnits="userSpaceOnUse" x1="328.9685" y1="411.9674" x2="265.1753" y2="463.1224" gradientTransform="matrix(0.866 0.5 -1 0.5774 818.6784 -218.187)">
			<stop  offset="0" style="stop-color:#C0D6FF"/>
			<stop  offset="0.2978" style="stop-color:#C5DBFF"/>
			<stop  offset="0.6488" style="stop-color:#D3E9FF"/>
			<stop  offset="1" style="stop-color:#E9FFFF"/>
		</linearGradient>
		<path class="st27" d="M651.2,209L608,184.1c-0.7-0.4-0.6-1.2,0.2-1.7l42.8-24.7c0.9-0.5,2.1-0.5,2.9-0.1l43.2,24.9
			c0.7,0.4,0.6,1.2-0.2,1.7l-42.8,24.7C653.2,209.4,652,209.4,651.2,209z"/>
		<path class="st8" d="M651.4,206.1L613.1,184c-0.7-0.4-0.6-1,0.2-1.5l37.9-21.9c0.8-0.4,1.9-0.5,2.6-0.1l38.3,22.1
			c0.7,0.4,0.6,1-0.2,1.5L653.9,206C653.2,206.4,652,206.5,651.4,206.1z"/>
		<path class="st9" d="M651.5,204.2l-35.2-20.3c-0.6-0.3-0.5-1,0.2-1.4l34.8-20.1c0.7-0.4,1.7-0.4,2.3-0.1l35.2,20.3
			c0.6,0.3,0.5,1-0.2,1.4l-34.8,20.1C653.1,204.5,652.1,204.6,651.5,204.2z"/>
	</g>
	<g>
		<polygon class="st10" points="651.7,182 647.6,179.6 649.9,178.3 654,180.7 		"/>
		<polygon class="st10" points="659.4,181.6 655.3,184 653,182.7 657.1,180.3 		"/>
		<polygon class="st10" points="650.8,182.5 648.6,183.8 646.3,182.5 648.6,181.2 		"/>
		<polygon class="st10" points="658.6,187 656.3,188.3 649.8,184.6 652.1,183.3 		"/>
	</g>
</g>
<g>
	<g>
		<path class="st28" d="M364.3,266l-0.1,0.4l-0.1-0.2c0,0-0.6,1.9-0.1,2.9c0.5,1,1.2,2.2,2.2,3.5c1,1.3,2.7,4.1,3.1,4.7
			c0.4,0.5,2.9,2.6,6.1,3c3.1,0.3,3.9-1.5,3.7-2.4c-0.3-1-1.9-3.5-3.8-5.6c-1.8-2.1-3.2-4.8-3.2-4.8L364.3,266z"/>
		<path class="st28" d="M373.6,257.6c0,0-0.1,2,0.1,2.8c0.2,0.8,4.8,1.1,6.4,1.3c1.6,0.2,4.5,1.4,5.4,1.8c0.9,0.4,6.9,1.1,7.6-1.1
			c0.7-2.2-3-4-5.5-4.6c-2.5-0.6-6.6-1.8-6.6-1.8L373.6,257.6z"/>
		<path class="st8" d="M357.7,217.9c0,0-0.2,5.6,1.7,13.4c1.9,7.8,1.6,13.2,1.6,13.2s-2,8.8-0.2,14.8c1.7,6,3.2,7.7,3.2,7.7
			s3.4,4.6,8,0.5c0,0-2.5-8.2-2.8-14.8c0,0,2.2-4.8,3-9.1c0,0,0.6,6.8,1,9.6c0,0-0.4,4.1,0.7,5.7c1.1,1.6,5.9,2.1,7.5-0.7
			c1.6-2.8-1.3-1.5-0.4-14.5c0,0,4.5-5.6,5.1-15.9c0.6-10.3,0.6-14.3,0-16.4c-0.6-2-10.5-9.2-10.5-9.2l-5.6,7.2L357.7,217.9z"/>
		<path class="st28" d="M379.8,229.4c1.6-1.9,2.5-8,2.5-8s-2.5,5.1-4.3,6.6c-1.8,1.5-3.4,4.5-3.7,6.4c-0.3,1.9-2.2,9.1-2.2,9.1
			s0.6,6.8,1,9.6c0,0-0.4,4.1,0.7,5.7c0.2,0.3,0.6,0.6,1.1,0.8c0-0.1-0.3-9,0-12.8C375.2,242.9,378.2,231.3,379.8,229.4z"/>
		<path class="st29" d="M342.8,176.4c0,0-4.3,8.4-4.7,9c-0.4,0.6-8.4,10.9-9.2,16.8c0,0-0.6,2.3,2.2,4.3c2.8,2,16.7,10.9,17.5,11
			c0.9,0.1,5.9-2.3,6.1-7.8c0,0-10.9-5.1-13.3-7.6c0,0,4.2-7.1,6.3-9.2c0.5-0.5,0.8-1.5,1-2.6c0.7-4.7-1.2-9.4-4.7-12.6L342.8,176.4
			z"/>
		<path class="st8" d="M374.8,156.8c0,0,6.6,2.5,8.9,1.6c2.3-0.8,7.8-1.6,11.6-3.7c3.8-2.1,20.5-6.4,22.9-6.6c0,0,0,0.1-0.4,0.3
			c-0.4,0.2-2.1,0.3-2.6,2.3c-0.5,1.9,0.6,4.3,0.8,4.4c0.3,0.2,0.4-0.5,2-1.3c1.6-0.7,2.6-0.7,2.6-0.7l0.6,0.8l0.4,0.6
			c0,0-0.8,2.3-2.9,2.5c-2.1,0.2-15.8,5.9-16.7,6.1c-0.9,0.3-12.4,5.2-14.5,6c-2.2,0.8-3.8,1.8-3.8,1.8s-6.7-4.5-6.9-4.5
			C376.6,166.4,374.8,156.8,374.8,156.8z"/>
		<path class="st30" d="M435.3,143.9c-0.5-0.6-6.8,1.2-6.8,1.2s-1.1-0.3-2.1-0.3c-1,0-3.8,2.2-4.8,2.7c-1,0.5-3.3,0.7-3.3,0.7
			c-5.5,1.1-2.4,7.2-2.2,7.1c0.2-0.1,1.7-1.1,2.2-1.3c0.5-0.2,1.3-0.4,1.3-0.4c0.2,0.1,1.4,0.7,2.1,0.9s2.6,0,3.5-0.6
			c0.8-0.5,3.3-0.8,3.4-0.7c0.1,0.1,0.5,0.3,0.5,0.3s0.2,0.6,0.6,0.8c0.5,0.2,1-1.1,1.2-1.2c0.2-0.1,0.9-0.6,1.1-0.8
			c0.1-0.2,0.5-3.7,0.4-4.4c-0.1-0.6-1.5-1.3-1.5-1.3s3.5-1.2,3.7-1.2C435,145.3,435.8,144.5,435.3,143.9z M429.1,150.3
			c-0.3,0.1-0.7,0.1-1.2,0.3c-0.5,0.2-1,0.5-1.5,0.4c0,0-0.6-1.1-0.2-1.4c0.5-0.4,0.9-0.7,0.9-0.7s0.9-0.2,0.9-0.3
			c0,0,0.5,0.4,1,0.1c0,0,0.5,0.8,1.3,0.8C430.2,149.5,429.4,150.2,429.1,150.3z"/>
		<path class="st28" d="M386.1,211.3c-0.6-2-10.5-9.2-10.5-9.2l-2.8,3.6l-2.4,9.3l-12.7,3.9v0c0,0,0.7,6.3,11,5.6
			c10.3-0.7,11.5-8.7,11.5-8.7s1.1,2.6,6.2,3.3C386.6,214.8,386.5,212.6,386.1,211.3z"/>
		<path class="st9" d="M355.4,162l-1.7,4.5c0,0-8.4,7.3-10.8,9.9c0,0,4.2,8,4.9,16.4c0,0,3.8,3.1,5,4.6c1.2,1.4,4.1,8.1,5,10.3
			c0.9,2.2-1.7,8.8-1.7,8.8s3.6,6.6,9.3,6.4c5.8-0.2,9.7-3.7,10.4-10c0.7-6.2,0.5-7.2,0.5-7.2s2.6,7.7,6.5,7.7
			c3.9,0,10.1-6.7,10.1-6.7s4.2-3.8,3.8-5.5c-0.4-1.7-9.9-16.6-10.4-19.1c-0.5-2.5-2.7-11.2-2.7-11.2l-9-14.1l-5.5,0.3L355.4,162z"
			/>
		<path class="st31" d="M355.4,162c0,0,0,2.7,1,5.3c1.1,2.7,4.5,17.6,12.3,22.7l3,1.9v-9.5c0,0-0.1-5.8-1.4-9.6
			c-1.3-3.7-1.3-8.2-1.3-8.2s-2.2-0.6-2.2-0.6C366.8,164.2,355.4,162,355.4,162z"/>
		<path class="st30" d="M365,169c0,0,1.4,0.6,2-0.3c0.6-0.9,1.2-2.7,1.1-3.6c0,0,3.7,0.2,4.4-1.8c0.7-1.9-0.1-2.4-0.2-3
			c-0.1-0.6-0.2-2.2-0.7-3.3l-0.1-0.5c0,0,0.8-0.6,0.4-1.3c-0.3-0.7-2.4-2.8-2.6-3.1c-0.2-0.4,0.1-3-0.7-4.3
			c-0.8-1.3-2.3-3.1-2.3-3.1s-7.9-6.2-14.1,0c-6.2,6.2,3.1,17.5,3.1,17.5s0.7,3.7,2.6,5.1C359.7,168.6,365,169,365,169z"/>
		<path class="st32" d="M359.3,154c0-0.2,0-0.5-0.1-0.7c-0.2-0.7-0.6-2.5,1.3-3.9c2.4-1.7,6.5-3.3,6.4-5c-0.1-1.7-6.7-6-11.6-3.7
			c-4.9,2.3-9.4,8.1-6.1,14.2c3.3,6.1,6.2,7.1,6.2,7.1s1-0.2,0.1-1.2c-0.9-1-2.5-3.6-1.2-4.4c1.3-0.8,3.7,0.9,4,1.3
			c0.1,0.1,0.2,0.3,0.3,0.5c0.2,0.3,0.5,0.4,0.8,0.3l0.1-0.1c0.3-0.1,0.5-0.5,0.3-0.8l-0.6-1.6c-0.1-0.2-0.1-0.5-0.1-0.7L359.3,154z
			"/>
		<path class="st33" d="M364.8,170.7c0,0-1.8,1.2-2.8,3.6c0,0,1.9-1.9,2.9-2.3c0,0,2.1,1,2.1,1.6c0,0.6,0.2,4.5,0.7,6.6
			c0.5,2.1,0.4,9.4,0.4,9.4l1.3,0.9l0.6-3.2l-0.2-6.9l-1.2-6.2c0,0-0.2-2.4-0.3-2.5C368.2,171.6,364.8,170.7,364.8,170.7z"/>
		<path class="st8" d="M364.8,170.7c0,0,2-2.1,3-2.2c1,0,1.6,0.5,1.6,0.6c0,0.1,1,3.5,1,3.5s1.9,5.8,1.7,12.6
			c-0.2,6.8-0.4,6.7-0.4,6.7l-2.5-1.6c0,0,0.7-4.9-0.7-10.5c-1.4-5.6-0.2-6.5-0.8-7C367.1,172.3,364.5,171.4,364.8,170.7z"/>
		<path class="st8" d="M352.8,197.4c1.2,1.4,4,8.1,5,10.3c0.2,0.4,0.3,0.8,0.3,1.4c0.2,0.2,0.4,0.2,0.4,0.2l1.3-1.2
			c0,0-1.1-4.1-2.9-9.1c-1.8-5-9-6.2-9-6.2S351.6,195.9,352.8,197.4z"/>
		<path class="st30" d="M354.7,209.8c0,0,2-3,2.7-3.4c0,0-0.2,0.8,1,1.4c1.2,0.5,7.3,2.9,7.5,3.2c0.2,0.3,0,0.6-0.4,0.7
			c0,0,1.3,0.4,1.8,0.4c0.5,0,1.2,0.6,0.9,1.2c-0.3,0.6-0.6,0.5-0.6,0.5s0.2,0.6-0.2,0.8c-0.4,0.1-1.3,0.2-1.3,0.2s0.2,0.6-0.3,0.9
			c-0.5,0.2-3,0.5-3,0.5s-1.9-0.2-2.5-0.2c-0.5,0-3.1,0.6-4.1,0.5c-1.1-0.2-4.6-1.4-4.9-1.6C350.7,214.5,354.7,209.8,354.7,209.8z"
			/>
		<path class="st8" d="M353.2,168l0.3,4l2.2,0.7l-1.5,1.2c0,0,5.9,13.3,13.4,17.6c0,0-7.2-2.5-13.9-17.5c0,0,0.7-0.8,0.9-1.1
			l-1.5-0.7L353.2,168z"/>
		<path class="st8" d="M372.4,167.6c0,0,2.7,13.6,0.4,23.9c0,0,2.7-4.9,0.3-23.9H372.4z"/>
		<path class="st34" d="M432.4,147.7c-0.4-0.5-1.4-1-1.4-1s-2.8,1.2-3.3,1.4C427.7,148,430.6,147.7,432.4,147.7z"/>
		<path class="st34" d="M416.1,155.3c0.1,0,0.6-0.3,1-0.6v0c-1.9-2.5,0.2-6.2,0.2-6.2C413.1,150.1,415.9,155.4,416.1,155.3z"/>
		<path class="st34" d="M351.1,214.8c0.3,0.2,2.3,0.9,3.7,1.3c0,0,0.9-3.7,0.7-4.9c-0.2-1.2-0.7-1.5-0.7-1.5
			c-0.1,0.1-0.1,0.2-0.1,0.2S350.7,214.5,351.1,214.8z"/>
		<path class="st29" d="M354.7,209.7c0,0,0.6,2.1-0.8,3.8c-1.4,1.6-1.6,1.9-1.6,1.9h-1.6c0,0-0.9-2.6-0.7-2.7
			C350,212.6,354.7,209.7,354.7,209.7z"/>
		<path class="st8" d="M370.1,171.5L370.1,171.5c0,0,1.6,9.3,1.2,12.8c-0.4,3.4-0.2,7.1-0.2,7.1l0.5,0.4l0.1,0.1
			c0,0,0.2,0.1,0.4-6.7c0.2-6.8-1.7-12.6-1.7-12.6S370.2,172.1,370.1,171.5z"/>
		<g>
			<path class="st28" d="M370.6,268.4c0.5-0.3,0.9-0.6,1.4-1c0,0-2.5-8.2-2.8-14.8c0,0,2.2-4.8,3-9.1c-0.2,0.9-2.8,5.5-4,10.2
				C367,258.4,370.6,268.4,370.6,268.4z"/>
		</g>
		<g>
			<path class="st34" d="M359,160.5C359,160.5,359,160.5,359,160.5C359,160.5,359,160.5,359,160.5z"/>
			<path class="st34" d="M359,160.5c0,0.2,0.7,3.6,2.1,5.1c1.4,1.6,2.5,3.2,2.5,3.2c0.9,0.1,1.5,0.2,1.5,0.2s1.4,0.6,2-0.3
				c0.6-0.9,1.2-2.7,1.1-3.6c0,0-5-0.5-6.9-1.8C359.4,162,359.1,160.7,359,160.5z"/>
		</g>
		<path class="st35" d="M357.2,206.5c0,0,0.3,0.6,0.3,0.6c0,0,0.1-0.4,0.1-0.4s-0.2-0.5-0.2-0.5
			C357.4,206.2,357.2,206.5,357.2,206.5z"/>
		<path class="st8" d="M371.7,192c0,0,3.5,11.1,4.6,13.8l-0.1,2.7C376.3,208.5,371.9,194.6,371.7,192z"/>
		<path class="st8" d="M375.1,195.9c0.2,0.6-0.1,1.3-0.7,1.5c-0.6,0.2-1.3-0.2-1.4-0.8c-0.2-0.6,0.1-1.3,0.7-1.5
			C374.2,194.9,374.9,195.3,375.1,195.9z"/>
		<path class="st8" d="M376.9,200.7c0.2,0.6-0.1,1.3-0.7,1.5c-0.6,0.2-1.3-0.2-1.4-0.8c-0.2-0.6,0.1-1.3,0.7-1.5
			C376,199.7,376.7,200.1,376.9,200.7z"/>
	</g>
	<path class="st36" d="M359.3,156.1c-0.1-0.2-0.1-0.5-0.1-0.7l0-1.3c0-0.2,0-0.5-0.1-0.7c-0.1-0.2-0.1-0.5-0.2-0.8
		c0,0-5.4,3.9-8.9,4.1c2.9,4.6,5.3,5.4,5.3,5.4s1-0.2,0.1-1.2c-0.9-1-2.5-3.6-1.2-4.4c1.3-0.8,3.7,0.9,4,1.3
		c0.1,0.1,0.2,0.3,0.3,0.5c0.2,0.3,0.5,0.4,0.8,0.3l0.1-0.1c0.3-0.1,0.5-0.5,0.3-0.8L359.3,156.1z"/>
</g>
<g>
	<g>
		<path class="st28" d="M351,309.5c0,0,2.3,0.3,4.6,0.2c2.2-0.1,8.3,0.4,8.3,2.3c0,1.9-2.9,4.9-6.8,5.6c-3.9,0.7-9,0.2-11.5,0.5
			c-2.6,0.3-4.5-1.7-3.8-3.9C342.5,311.9,351,309.5,351,309.5z"/>
		<path class="st28" d="M337,305.5c0,0-0.7,1.2-0.2,1.9c0.5,0.7,1.8,2.3,5.3,0.3c3.4-2,10.2-5.1,10.2-5.1s3.9-2.2,3.5-4.3
			c-0.4-2.2-4.1-1.5-4.1-1.5L337,305.5z"/>
		<path class="st8" d="M358.2,271.6c0,0-0.4,15.1-3.3,20.9c-2.9,5.8-2.9,15.7-3.4,17.6c-0.5,1.9-2.4,4.7-5.7,5.6
			c-3.3,0.9-4.1-1-4-2.2c0-1.2,0.8-3.1,0.7-4.4c-0.1-1.3-0.5-1.8-0.6-2.4c0,0-3.8,1.3-4.7-1.2c0,0,0.2-0.8,0.2-1.2
			c0-0.4-1.5-9.8-1.7-11c-0.2-1.2-0.2-7.6,0.5-10.9c0.8-3.3-0.4-10.1-0.4-10.1l11.5-2.5L358.2,271.6z"/>
		<path class="st28" d="M339.3,273.2c0,0,0.3,2.4,1.6,4.2c0,0,0.8,7.9,2.1,11.8c0,0-0.7,7.9-1.3,10.4c-0.7,2.5,0,7.1,0,7.1
			s-0.4,0.2-1.1,0.3c-0.6,0.1-1.7-9.2-0.9-10.9c0.8-1.7,0.8-9.3,0.1-11.6c-0.6-2.3-1.2-9-1.8-10.1c-0.6-1.2,0.4-1.9,0.4-1.9
			L339.3,273.2z"/>
		<path class="st28" d="M343.7,212.6c0,0,3.9,2.2,4.1,6.6l-2.8-0.3C345,218.9,345.4,214,343.7,212.6z"/>
		<path class="st28" d="M348.1,275.7c-7.7,0.9-12.2-1.8-12.2-1.8c-0.1-1-0.2-1.6-0.2-1.6l11.5-2.5l10.9,1.7c0,0-0.1,3-0.4,6.9
			c-1.9,0.3-4.1-3.6-4.1-3.6l-5.3,0.8C348.4,275.7,355.8,274.8,348.1,275.7z"/>
		<path class="st9" d="M356.7,271.9c0,0-16.2,7.5-25.6-3.3c-0.3-0.3-0.4-0.7-0.5-1.1l-0.2-2.8c0-0.4-0.1-0.7-0.3-1l0,0
			c-0.3-0.7-0.5-1.4-0.4-2.2c0.3-3.2,1-12,1.2-14.5c0.2-3-3-15.1-6.6-20.3c-3.6-5.2,2.6-18.3,2.6-18.3s1.6-3.1,5.4-2.4
			c0,0-3.3,2.7-1.1,5.1c2.2,2.4,8.2,3.8,8.2,3.8s11.1,4.3,15.2,10.3c0,0,1.5,3.1,1.9,7.2c0.4,4.1,0.7,13.7,1,15
			c0.3,1.3,1.5,10.1,1.5,10.5C358.9,258.4,356.7,271.9,356.7,271.9z"/>
		<g>
			
				<linearGradient id="SVGID_17_" gradientUnits="userSpaceOnUse" x1="1951.476" y1="207.0048" x2="1953.3057" y2="207.0048" gradientTransform="matrix(-1 0 0 1 2283.8137 0)">
				<stop  offset="0" style="stop-color:#5778FF"/>
				<stop  offset="7.257640e-02" style="stop-color:#5489FF"/>
				<stop  offset="0.2791" style="stop-color:#4EB3FF"/>
				<stop  offset="0.4801" style="stop-color:#49D4FF"/>
				<stop  offset="0.6715" style="stop-color:#45ECFF"/>
				<stop  offset="0.8493" style="stop-color:#43FAFF"/>
				<stop  offset="1" style="stop-color:#42FFFF"/>
			</linearGradient>
			<path class="st37" d="M330.8,208c-0.4-0.7-0.4-1.4-0.2-2c0.5-0.1,1.1-0.1,1.7,0C332.3,206.1,331.3,206.9,330.8,208z"/>
			<path class="st8" d="M351.7,273.6c0,0-12.4-23.6-12.8-32.9c-0.5-9.3,16.6,16.9,16.6,16.9l1.2,14.4
				C356.7,271.9,353.6,273.3,351.7,273.6z"/>
		</g>
		<path class="st29" d="M354.7,244c-0.5-2.1-0.9-4.2-1.1-6.3c-0.3-3.7-2-9.9-9.2-8.2c-10.2,2.4-4.4,15.4-3.1,17.6
			c1.3,2.2,6.7,11.9,6.9,12.4c0.3,0.5,8.1,12.1,10.7,14.8c0.2,0.2,0.6,0.2,0.9,0c0.9-0.8,3-2.8,3.2-3.9c0.3-1.5-1.5-6.6-1.5-6.6
			s-4.9-13.1-5.3-13.8C356,249.6,355.6,247.4,354.7,244z"/>
		<path class="st30" d="M343.5,213c0,0,0.7-1.9,2.6-2.3c1.9-0.4,3-1,3.1-1.7c0.1-0.7,0.1-1.6,0.5-2.6c0.4-1.1,0.6-3.7,0.6-3.8
			c0-0.1,1.4-0.6,1.5-1.3c0-0.6-0.9-2.9-0.9-3.1c0.1-0.2,0.8-1.7,0.6-2.8c-0.2-1.1-0.5-2.7-1.2-4c-0.7-1.3-5.7-9.4-16.3-4
			c-10.7,5.3-1.3,13.7-1.7,19.6c0,0-0.8,1.3,1.1,3.2C335.3,212.1,340.5,212.1,343.5,213z"/>
		<path class="st34" d="M333.3,210.2c-2-1.9-1.1-3.2-1.1-3.2c0.1-0.8-0.1-1.7-0.3-2.6l4.4,0.4c0,0,5.8-6.1,5.6-3.1
			c-0.2,3,1.4,3.4,1.4,3.4l-1.1,1.7c-0.3,0.4-0.1,0.9,0.3,1.3c2.1,2.8,6.3,1.5,6.3,1.5c-0.5,0.4-1.4,0.7-2.6,0.9
			c-1.9,0.4-2.6,2.3-2.6,2.3C340.5,212.1,335.3,212.1,333.3,210.2z"/>
		<g>
			<path class="st32" d="M350.5,188.2c0,0,0.9,2.2-0.2,3.2c-1.2,1-2.2,2-2.2,2l0.2,2.8c0,0.4-0.1,0.8-0.2,1.2l-1.3,2.5
				c-0.3,0.5-0.4,1-0.3,1.6l0.1,1.1c0,0.3-0.2,0.6-0.5,0.7l-0.4,0.1c-0.4,0.1-0.7-0.2-0.8-0.5l-0.3-1.5c0,0-0.9-1.2-2.6,0.5
				l-1.5,0.8c-0.4,0.2-0.7,0.6-0.9,1.1c-0.3,1.2-1.1,3.7-1.7,4.1c-0.9,0.6-4.8-0.9-5.4-1.7c-0.6-0.8-2.4-6.2-3.5-8.9
				c-1.1-2.6-1.4-9.4,6.7-11.8C343.6,182.9,349.1,185.9,350.5,188.2z"/>
			<path class="st36" d="M332.3,206.1c-0.6-0.8-2.4-6.2-3.5-8.9c0,0,3.4,1.8,7.5,2c4.1,0.3,11.8-5,11.8-5l0.2,2.1
				c0,0.4-0.1,0.8-0.2,1.2l-1.3,2.5c-0.3,0.5-0.4,1-0.3,1.6l0.1,1.1c0,0.3-0.2,0.6-0.5,0.7l-0.4,0.1c-0.4,0.1-0.7-0.2-0.8-0.5
				l-0.3-1.5c0,0-0.9-1.2-2.6,0.5l-2.2,1.1c0,0-1,4.2-1.9,4.8C336.8,208.4,332.9,206.8,332.3,206.1z"/>
		</g>
		<path class="st31" d="M332.2,206.3c0,0-2.9,2.1-1.1,4.6c1.8,2.5,13.5,6.1,14.1,6.8c0,0,0.1-3.9-1.5-5.1c0,0-8.7-0.9-10.3-2.9
			C331.8,207.8,332.2,206.3,332.2,206.3z"/>
		<path class="st33" d="M332.2,206.3c0,0-0.4,1.4,1.2,3.4c1.2,1.5,6.5,2.4,9,2.7l0,0c0,0-0.9,0.6-2.1,3.2c-3.6-1.4-8-3.3-9.1-4.7
			C329.3,208.5,332.2,206.3,332.2,206.3z"/>
		<path class="st8" d="M331,214.9c0,0,5.3,2.3,7.8,3.3c2.5,1,5.3,2.4,5.3,2.4l0.8-1l1.3,2.2c0,0,4,1.8,5.9,3.5
			c1.9,1.6,3.4,3.8,3.7,4.4c0,0-5.2-5.4-9-6.8l-1-0.4l-0.7-1.8l-0.8,1C344.2,221.7,332.7,216.4,331,214.9z"/>
	</g>
	<g>
		<path class="st9" d="M350.6,287.3L350.6,287.3L350.6,287.3c0.1-0.4,0.3-0.7,0.5-0.9l17.7-15.5c0.5-0.4,1-0.2,1.1,0.5l3.2,15.9
			c0.1,0.7-0.1,1.6-0.6,2l-14.5,12.7l0.9,4.3l-4.7-1.4l0,0c-0.2-0.1-0.4-0.3-0.5-0.7l-3.2-15.9C350.4,288.1,350.5,287.7,350.6,287.3
			z"/>
		<path class="st9" d="M374,272.1l-4.6-1.3l-0.1,0c-0.2,0-0.3,0-0.5,0.2l-17.7,15.5c-0.2,0.2-0.4,0.5-0.5,0.9l0.7,0.2l0,0l3.9,1.3
			l15.4-13.7l0,0L374,272.1z"/>
		<path class="st8" d="M377.1,290.7l-17.7,15.5c-0.5,0.4-1,0.2-1.1-0.5l-3.2-15.9c-0.1-0.7,0.1-1.6,0.6-2l17.7-15.5
			c0.5-0.4,1-0.2,1.1,0.5l3.2,15.9C377.8,289.4,377.5,290.3,377.1,290.7z"/>
		<path class="st28" d="M355.9,305l-3.2-15.9c-0.1-0.7,0.1-1.6,0.6-2l17.7-15.5c0.1-0.1,0.3-0.2,0.4-0.2c-0.2-0.1-0.4,0-0.6,0.2
			L353.2,287c-0.5,0.4-0.7,1.3-0.6,2l3.2,15.9c0.1,0.5,0.4,0.8,0.7,0.8C356.2,305.6,356,305.4,355.9,305z"/>
		<g>
			<g>
				<path class="st28" d="M360.7,280.5l-1-0.3c-0.2-0.1-0.4-0.1-0.6,0l-0.1,0c-0.1,0-0.1,0.1-0.1,0.3l0,0.2l2.8,1l0-0.2
					c0-0.1-0.1-0.3-0.2-0.4l-0.1-0.1C361.2,280.7,360.9,280.6,360.7,280.5z"/>
				<polygon class="st28" points="360.5,282.6 361.8,281.5 358.9,280.2 357.7,281.3 				"/>
				<path class="st9" d="M359.5,281.6l-1-0.3c-0.2-0.1-0.4-0.1-0.6,0l-0.1,0c-0.1,0-0.1,0.1-0.1,0.3l0,0.2l2.8,1l0-0.2
					c0-0.1-0.1-0.3-0.2-0.4l-0.1-0.1C359.9,281.8,359.7,281.7,359.5,281.6z"/>
				<polygon class="st28" points="358.9,282 358.8,281.4 358.9,281.4 359,282.1 				"/>
				<polygon class="st28" points="358.8,281.4 360.1,280.3 360.1,280.3 358.9,281.4 				"/>
			</g>
			<g>
				<path class="st28" d="M366.3,275.6l-1-0.3c-0.2-0.1-0.4-0.1-0.6,0l-0.1,0c-0.1,0-0.1,0.1-0.1,0.3l0,0.2l2.8,1l0-0.2
					c0-0.1-0.1-0.3-0.2-0.4L367,276C366.8,275.8,366.6,275.6,366.3,275.6z"/>
				<polygon class="st28" points="366.2,277.7 367.4,276.6 364.6,275.3 363.3,276.3 				"/>
				<path class="st9" d="M365.1,276.7l-1-0.3c-0.2-0.1-0.4-0.1-0.6,0l-0.1,0c-0.1,0-0.1,0.1-0.1,0.3l0,0.2l2.8,1l0-0.2
					c0-0.1-0.1-0.3-0.2-0.4l-0.1-0.1C365.6,276.9,365.3,276.7,365.1,276.7z"/>
				<polygon class="st28" points="364.6,277.1 364.4,276.4 364.5,276.4 364.6,277.1 				"/>
				<polygon class="st28" points="364.4,276.4 365.7,275.3 365.8,275.4 364.5,276.4 				"/>
			</g>
			<g>
				<path class="st9" d="M358,278l0.6,3l0.8-0.7l-0.6-2.9c-0.1-0.4,0.1-1,0.4-1.3l3.6-3.2c0.3-0.3,0.7-0.2,0.7,0.3l0.6,2.9l0.8-0.7
					l-0.6-3c-0.2-0.9-0.9-1.2-1.6-0.6l-3.9,3.4C358.2,275.8,357.8,277.1,358,278z"/>
				<path class="st9" d="M364.2,272.6l-1.6,0l-4.3,4.2l0,2.3l0.2,1.9l1,0.4l-0.2-2.4l-0.1-1.6l0.9-1.3c0,0,1.6-1.4,1.6-1.4
					C361.9,274.6,364.2,272.6,364.2,272.6z"/>
				<polygon class="st9" points="365.3,276.4 364.2,276.1 363.8,273.9 364.8,273.9 365.1,273.9 				"/>
				<path class="st9" d="M364.9,271.9l-1.1-0.4c0,0,0.3,0.5,0.3,0.5c0,0,0.4,0.1,0.4,0.1C364.5,272.1,364.9,271.9,364.9,271.9z"/>
				<path class="st28" d="M359,278.4l0.6,3l0.8-0.7l-0.6-2.9c-0.1-0.4,0.1-1,0.4-1.3l3.6-3.2c0.3-0.3,0.7-0.2,0.7,0.3l0.6,2.9
					l0.8-0.7l-0.6-3c-0.2-0.9-0.9-1.2-1.6-0.6l-3.9,3.4C359.3,276.2,358.8,277.5,359,278.4z"/>
			</g>
		</g>
	</g>
	<path class="st30" d="M362.7,270.3c0,0,0.9,2.9,0.7,3.7c-0.1,0.8-1.6,2.3-2.6,2.7c-0.9,0.3-0.6-0.7-0.9-1.3c-0.3-0.6-0.3-2-0.3-2
		L362.7,270.3z"/>
	<path class="st34" d="M359.7,273.4l3.1-3c0,0,0.2,0.6,0.4,1.3c0,0-1.1,2.3-3.2,3.4C359.7,274.4,359.7,273.4,359.7,273.4z"/>
	<path class="st29" d="M363,270.5c0,0-0.9,3.3-3.8,3.9l0.7-3.6c0,0,2.4-0.8,2.5-0.8C362.5,269.9,363,270.5,363,270.5z"/>
</g>
<g class="st38">
	<polygon class="st9" points="486.2,144.8 496.7,150.9 496.7,149.7 486.2,143.7 	"/>
	<polygon class="st9" points="480.9,141.7 484.6,143.9 484.6,142.8 480.9,140.6 	"/>
	<polygon class="st9" points="476.7,139.3 479.3,140.8 479.3,139.6 476.7,138.2 	"/>
	<polygon class="st9" points="491,150.3 496.7,153.6 496.7,152.4 491,149.1 	"/>
	<polygon class="st9" points="482.4,145.3 489.4,149.4 489.4,148.2 482.4,144.1 	"/>
	<polygon class="st9" points="478.2,142.9 480.8,144.4 480.8,143.2 478.2,141.7 	"/>
	<polygon class="st9" points="474.3,140.6 476.8,142.1 476.8,140.9 474.3,139.4 	"/>
	<polygon class="st9" points="492.6,153.9 496.7,156.2 496.7,155.1 492.6,152.7 	"/>
	<polygon class="st9" points="489.6,152.1 491,152.9 491,151.8 489.6,150.9 	"/>
	<polygon class="st9" points="485.4,149.7 488,151.2 488,150 485.4,148.5 	"/>
	<polygon class="st9" points="481.5,150.1 496.7,158.9 496.7,157.7 481.5,148.9 	"/>
	<polygon class="st9" points="476.1,147 479.9,149.2 479.9,148 476.1,145.8 	"/>
	<polygon class="st9" points="492.6,159.2 496.7,161.6 496.7,160.4 492.6,158 	"/>
	<polygon class="st9" points="482.9,153.6 491,158.3 491,157.1 482.9,152.4 	"/>
	<polygon class="st9" points="478.7,151.2 481.3,152.7 481.3,151.5 478.7,150 	"/>
	<polygon class="st9" points="488.3,159.4 496.7,164.3 496.7,163.1 488.3,158.2 	"/>
	<polygon class="st9" points="480.6,154.9 486.7,158.4 486.7,157.3 480.6,153.7 	"/>
	<polygon class="st9" points="474.8,151.6 479,154 479,152.8 474.8,150.4 	"/>
	<polygon class="st9" points="493.9,165.3 496.7,166.9 496.7,165.8 493.9,164.1 	"/>
	<polygon class="st9" points="488.5,162.2 492.3,164.4 492.3,163.2 488.5,161 	"/>
	<polygon class="st9" points="480.8,157.7 486.9,161.2 486.9,160.1 480.8,156.6 	"/>
	<polygon class="st9" points="488,164.5 496.7,169.6 496.7,168.4 488,163.4 	"/>
	<polygon class="st9" points="478.2,158.9 486.4,163.6 486.4,162.4 478.2,157.7 	"/>
	<polygon class="st9" points="474,156.5 476.6,158 476.6,156.8 474,155.3 	"/>
	<polygon class="st9" points="470,154.2 472.6,155.6 472.6,154.5 470,153 	"/>
	<polygon class="st9" points="491.5,169.2 496.7,172.3 496.7,171.1 491.5,168.1 	"/>
	<polygon class="st9" points="465,132.6 457.7,128.4 457.7,127.2 465,131.4 	"/>
	<polygon class="st9" points="463.4,134.3 457.7,131 457.7,129.9 463.4,133.2 	"/>
	<polygon class="st9" points="461.8,136.1 457.7,133.7 457.7,132.5 461.8,134.9 	"/>
	<polygon class="st9" points="463.7,139.8 457.7,136.4 457.7,135.2 463.7,138.7 	"/>
	<polygon class="st9" points="461.8,141.4 457.7,139 457.7,137.9 461.8,140.3 	"/>
	<polygon class="st9" points="462.9,144.7 457.7,141.7 457.7,140.5 462.9,143.6 	"/>
	<polygon class="st9" points="460.6,146 457.7,144.4 457.7,143.2 460.6,144.9 	"/>
	<polygon class="st9" points="463.2,150.3 457.7,147.1 457.7,145.9 463.2,149.1 	"/>
	<polygon class="st9" points="462.9,152.8 457.7,149.7 457.7,148.6 462.9,151.6 	"/>
	<polygon class="st9" points="487.7,167 489.9,168.3 489.9,167.1 487.7,165.9 	"/>
	<polygon class="st9" points="481,163.2 486.1,166.1 486.1,164.9 481,162 	"/>
	<polygon class="st9" points="475.3,173.8 483.8,178.7 483.8,177.5 475.3,172.6 	"/>
	<polygon class="st9" points="469.5,170.4 472.8,172.4 472.8,171.2 469.5,169.3 	"/>
</g>
<g>
	<path class="st5" d="M288.3,209.2c1.2,3.5-7.1,9.6-18.5,13.6c-11.5,4-21.8,4.4-23,0.9c-1.2-3.5,7.1-9.6,18.5-13.6
		C276.8,206,287.1,205.6,288.3,209.2z"/>
	<g>
		<g>
			<g>
				<polygon class="st39" points="259.3,196.4 259.4,192.7 260.3,190.6 260.8,192.4 				"/>
			</g>
			<g>
				<path class="st40" d="M297.3,197.1l0.1-3.6c0,0-3,3-3,3.1C294.4,196.6,297.3,197.1,297.3,197.1z"/>
			</g>
			<g>
				<g>
					<path class="st40" d="M278,207.6c-10.5-0.3-18.8-5.6-18.6-14.8c0.2-9.3,8.9-16.6,19.4-16.3c10.5,0.3,18.8,8,18.6,17.2
						C297.2,202.9,288.5,207.8,278,207.6z"/>
				</g>
				<g>
					
						<ellipse transform="matrix(2.394455e-02 -0.9997 0.9997 2.394455e-02 74.8575 470.3002)" class="st40" cx="278.3" cy="196.8" rx="16.8" ry="19"/>
				</g>
				<g>
					<path class="st39" d="M265,184.7c-3.4,2.9-5.6,7-5.7,11.6c-0.2,9.3,8.1,17,18.6,17.2c5.2,0.1,9.9-1.6,13.4-4.5L265,184.7z"/>
				</g>
				<g>
					
						<ellipse transform="matrix(2.394375e-02 -0.9997 0.9997 2.394375e-02 74.8577 470.3004)" class="st41" cx="278.3" cy="196.8" rx="16" ry="18.1"/>
				</g>
				<g>
					
						<ellipse transform="matrix(2.394542e-02 -0.9997 0.9997 2.394542e-02 74.8572 470.3)" class="st42" cx="278.3" cy="196.8" rx="12.9" ry="14.6"/>
				</g>
				<g>
					<path class="st40" d="M292.8,197.2c0-0.3,0-0.6,0-0.9c-0.7,6.7-7.1,11.8-14.8,11.6c-7.7-0.2-13.9-5.6-14.2-12.3
						c0,0.3-0.1,0.6-0.1,0.9c-0.2,7.1,6.2,13,14.3,13.2C286,209.9,292.7,204.3,292.8,197.2z"/>
				</g>
				<g>
					<g>
						<path class="st40" d="M281.1,197.9l-3-2.8c-2.9,0.7-8.2,1.9-12.5,2.9c1.1,3.2,3.7,5.8,7.1,7.3L281.1,197.9z"/>
					</g>
					<g>
						<path class="st40" d="M276.4,206.2c0.5,0.1,1,0.1,1.4,0.1c3.5,0.1,6.7-1.1,9.1-3l-4.9-4.5L276.4,206.2z"/>
					</g>
					<g>
						<path class="st40" d="M274.9,192.2l-5.6-5.2c-1.9,1.7-3.6,3.5-4,5.9L274.9,192.2z"/>
					</g>
				</g>
				<g>
					<path class="st39" d="M277.8,185.5c8,0.2,14.4,6.1,14.3,13.2c0,1.4-0.3,2.8-0.9,4.1c1-1.7,1.6-3.6,1.6-5.6
						c0.2-7.1-6.2-13-14.3-13.2c-6.4-0.2-11.9,3.4-14,8.4C267.1,188.2,272.1,185.4,277.8,185.5z"/>
				</g>
			</g>
			<g>
				<path class="st39" d="M259.4,192.7c0,1.4-0.2,2.4,0.2,3.7c0.4-1.4,1.3-5.4,1.3-5.4l1.4-3.2l1.2-1l2-1.5l0.2-4.7
					C262,183.6,259.6,187.9,259.4,192.7z"/>
			</g>
		</g>
		<g>
			<g>
				<path class="st39" d="M296.2,192.3l0.1-1c0-0.1,0.1-0.2,0.2-0.2l0.1,0c0.1,0,0.2,0.1,0.2,0.3l-0.1,1c0,0.1-0.1,0.2-0.2,0.2
					l-0.1,0C296.3,192.5,296.2,192.4,296.2,192.3z"/>
			</g>
			<g>
				<path class="st39" d="M294.5,188.6l0.1-1.7c0-0.2,0.1-0.3,0.3-0.3l0.2,0c0.1,0,0.3,0.1,0.3,0.3l-0.1,1.7c0,0.2-0.1,0.3-0.3,0.3
					l-0.2,0C294.6,188.9,294.5,188.8,294.5,188.6z"/>
			</g>
			<g>
				<path class="st39" d="M292.2,185.4l0.1-1.7c0-0.2,0.1-0.3,0.3-0.3l0.3,0c0.2,0,0.3,0.1,0.3,0.3l-0.1,1.7c0,0.2-0.1,0.3-0.3,0.3
					l-0.3,0C292.3,185.7,292.2,185.6,292.2,185.4z"/>
			</g>
			<g>
				<path class="st39" d="M288.7,182.8l0.1-2c0-0.2,0.1-0.3,0.3-0.3l0.3,0c0.2,0,0.3,0.2,0.3,0.3l-0.1,2c0,0.2-0.1,0.3-0.3,0.3
					l-0.3,0C288.9,183.2,288.7,183,288.7,182.8z"/>
			</g>
			<g>
				<path class="st39" d="M285.3,181.2l0.1-2.3c0-0.2,0.1-0.3,0.3-0.3l0.3,0c0.2,0,0.3,0.1,0.3,0.3l-0.1,2.3c0,0.2-0.1,0.3-0.3,0.3
					l-0.3,0C285.4,181.5,285.3,181.3,285.3,181.2z"/>
			</g>
			<g>
				<path class="st39" d="M281.8,180.1l0.1-2.2c0-0.2,0.1-0.3,0.3-0.3l0.3,0c0.2,0,0.3,0.2,0.3,0.3l-0.1,2.2c0,0.2-0.1,0.3-0.3,0.3
					l-0.3,0C281.9,180.4,281.8,180.3,281.8,180.1z"/>
			</g>
			<g>
				<path class="st39" d="M278.2,179.8l0.1-2.3c0-0.2,0.1-0.3,0.3-0.3l0.3,0c0.2,0,0.3,0.1,0.3,0.3l-0.1,2.3c0,0.2-0.1,0.3-0.3,0.3
					l-0.3,0C278.4,180.1,278.2,179.9,278.2,179.8z"/>
			</g>
			<g>
				<path class="st39" d="M274.7,179.8l0.1-2.1c0-0.2,0.1-0.3,0.3-0.3l0.3,0c0.2,0,0.3,0.1,0.3,0.3l-0.1,2.1c0,0.2-0.1,0.3-0.3,0.3
					l-0.3,0C274.8,180.2,274.7,180,274.7,179.8z"/>
			</g>
			<g>
				<path class="st39" d="M271.2,180.6l0.1-2.1c0-0.2,0.1-0.3,0.3-0.3l0.3,0c0.2,0,0.3,0.1,0.3,0.3l-0.1,2.1c0,0.2-0.1,0.3-0.3,0.3
					l-0.3,0C271.3,180.9,271.2,180.8,271.2,180.6z"/>
			</g>
			<g>
				<path class="st39" d="M267.6,182.4l0.1-2.2c0-0.2,0.1-0.3,0.3-0.3l0.3,0c0.2,0,0.3,0.1,0.3,0.3l-0.1,2.2c0,0.2-0.1,0.3-0.3,0.3
					l-0.3,0C267.7,182.7,267.6,182.5,267.6,182.4z"/>
			</g>
		</g>
	</g>
</g>
<ellipse transform="matrix(0.9439 -0.3303 0.3303 0.9439 -82.6111 208.0028)" class="st5" cx="570.7" cy="347.1" rx="22" ry="6.7"/>
<g>
	<g>
		<g>
			<polygon class="st39" points="562.5,327 562.6,323.4 563.4,321.3 564,323 			"/>
		</g>
		<g>
			<path class="st40" d="M600.4,327.7l0.1-3.6c0,0-3,3-3,3.1C597.6,327.3,600.4,327.7,600.4,327.7z"/>
		</g>
		<g>
			<g>
				<path class="st40" d="M581.2,338.2c-10.5-0.3-18.8-5.6-18.6-14.8c0.2-9.3,8.9-16.6,19.4-16.3c10.5,0.3,18.8,8,18.6,17.2
					C600.4,333.6,591.7,338.5,581.2,338.2z"/>
			</g>
			<g>
				
					<ellipse transform="matrix(2.393387e-02 -0.9997 0.9997 2.393387e-02 240.1544 900.9033)" class="st40" cx="581.4" cy="327.5" rx="16.8" ry="19"/>
			</g>
			<g>
				<path class="st39" d="M568.2,315.4c-3.4,2.9-5.6,7-5.7,11.6c-0.2,9.3,8.1,17,18.6,17.2c5.2,0.1,9.9-1.6,13.4-4.5L568.2,315.4z"
					/>
			</g>
			<g>
				
					<ellipse transform="matrix(2.393300e-02 -0.9997 0.9997 2.393300e-02 240.1549 900.9036)" class="st41" cx="581.4" cy="327.5" rx="16" ry="18.1"/>
			</g>
			<g>
				
					<ellipse transform="matrix(2.393069e-02 -0.9997 0.9997 2.393069e-02 240.1562 900.9044)" class="st42" cx="581.4" cy="327.5" rx="12.9" ry="14.6"/>
			</g>
			<g>
				<path class="st40" d="M596,327.8c0-0.3,0-0.6,0-0.9c-0.7,6.7-7.1,11.8-14.8,11.6c-7.7-0.2-13.9-5.6-14.2-12.3
					c0,0.3-0.1,0.6-0.1,0.9c-0.2,7.1,6.2,13,14.3,13.2C589.2,340.5,595.8,334.9,596,327.8z"/>
			</g>
			<g>
				<g>
					<path class="st40" d="M584.2,328.5l-3-2.8c-2.9,0.7-8.2,1.9-12.5,2.9c1.1,3.2,3.7,5.8,7.1,7.3L584.2,328.5z"/>
				</g>
				<g>
					<path class="st40" d="M579.5,336.9c0.5,0.1,1,0.1,1.4,0.1c3.5,0.1,6.7-1.1,9.1-3l-4.9-4.5L579.5,336.9z"/>
				</g>
				<g>
					<path class="st40" d="M578,322.8l-5.6-5.2c-1.9,1.7-3.6,3.5-4,5.9L578,322.8z"/>
				</g>
			</g>
			<g>
				<path class="st39" d="M581,316.1c8,0.2,14.4,6.1,14.3,13.2c0,1.4-0.3,2.8-0.9,4.1c1-1.7,1.6-3.6,1.6-5.6
					c0.2-7.1-6.2-13-14.3-13.2c-6.4-0.2-11.9,3.4-14,8.4C570.2,318.8,575.2,316,581,316.1z"/>
			</g>
		</g>
		<g>
			<path class="st39" d="M562.6,323.4c0,1.4-0.2,2.4,0.2,3.7c0.4-1.4,1.3-5.4,1.3-5.4l1.4-3.2l1.2-1l2-1.5l0.2-4.7
				C565.1,314.2,562.7,318.5,562.6,323.4z"/>
		</g>
	</g>
	<g>
		<g>
			<path class="st39" d="M599.3,322.9l0.1-1c0-0.1,0.1-0.2,0.2-0.2l0.1,0c0.1,0,0.2,0.1,0.2,0.3l-0.1,1c0,0.1-0.1,0.2-0.2,0.2
				l-0.1,0C599.4,323.2,599.3,323.1,599.3,322.9z"/>
		</g>
		<g>
			<path class="st39" d="M597.7,319.3l0.1-1.7c0-0.2,0.1-0.3,0.3-0.3l0.2,0c0.1,0,0.3,0.1,0.3,0.3l-0.1,1.7c0,0.2-0.1,0.3-0.3,0.3
				l-0.2,0C597.8,319.5,597.7,319.4,597.7,319.3z"/>
		</g>
		<g>
			<path class="st39" d="M595.4,316.1l0.1-1.7c0-0.2,0.1-0.3,0.3-0.3l0.3,0c0.2,0,0.3,0.1,0.3,0.3l-0.1,1.7c0,0.2-0.1,0.3-0.3,0.3
				l-0.3,0C595.5,316.4,595.4,316.2,595.4,316.1z"/>
		</g>
		<g>
			<path class="st39" d="M591.9,313.5l0.1-2c0-0.2,0.1-0.3,0.3-0.3l0.3,0c0.2,0,0.3,0.1,0.3,0.3l-0.1,2c0,0.2-0.1,0.3-0.3,0.3
				l-0.3,0C592,313.8,591.9,313.7,591.9,313.5z"/>
		</g>
		<g>
			<path class="st39" d="M588.4,311.8l0.1-2.3c0-0.2,0.1-0.3,0.3-0.3l0.3,0c0.2,0,0.3,0.1,0.3,0.3l-0.1,2.3c0,0.2-0.1,0.3-0.3,0.3
				l-0.3,0C588.5,312.1,588.4,312,588.4,311.8z"/>
		</g>
		<g>
			<path class="st39" d="M584.9,310.8l0.1-2.2c0-0.2,0.1-0.3,0.3-0.3l0.3,0c0.2,0,0.3,0.1,0.3,0.3l-0.1,2.2c0,0.2-0.1,0.3-0.3,0.3
				l-0.3,0C585,311.1,584.9,311,584.9,310.8z"/>
		</g>
		<g>
			<path class="st39" d="M581.4,310.4l0.1-2.3c0-0.2,0.1-0.3,0.3-0.3l0.3,0c0.2,0,0.3,0.1,0.3,0.3l-0.1,2.3c0,0.2-0.1,0.3-0.3,0.3
				l-0.3,0C581.5,310.7,581.4,310.6,581.4,310.4z"/>
		</g>
		<g>
			<path class="st39" d="M577.9,310.5l0.1-2.1c0-0.2,0.1-0.3,0.3-0.3l0.3,0c0.2,0,0.3,0.1,0.3,0.3l-0.1,2.1c0,0.2-0.1,0.3-0.3,0.3
				l-0.3,0C578,310.8,577.9,310.7,577.9,310.5z"/>
		</g>
		<g>
			<path class="st39" d="M574.3,311.3l0.1-2.1c0-0.2,0.1-0.3,0.3-0.3l0.3,0c0.2,0,0.3,0.1,0.3,0.3l-0.1,2.1c0,0.2-0.1,0.3-0.3,0.3
				l-0.3,0C574.5,311.6,574.3,311.4,574.3,311.3z"/>
		</g>
		<g>
			<path class="st39" d="M570.8,313l0.1-2.2c0-0.2,0.1-0.3,0.3-0.3l0.3,0c0.2,0,0.3,0.1,0.3,0.3l-0.1,2.2c0,0.2-0.1,0.3-0.3,0.3
				l-0.3,0C570.9,313.3,570.8,313.2,570.8,313z"/>
		</g>
	</g>
</g>
<path class="st5" d="M628.9,280.6c1.2,3.5-7.1,9.6-18.5,13.6c-11.5,4-21.8,4.4-23,0.9c-1.2-3.5,7.1-9.6,18.5-13.6
	C617.4,277.5,627.7,277.1,628.9,280.6z"/>
<g>
	<g>
		<g>
			<polygon class="st39" points="599.9,267.8 600,264.2 600.9,262.1 601.4,263.8 			"/>
		</g>
		<g>
			<path class="st40" d="M637.9,268.5l0.1-3.6c0,0-3,3-3,3.1C635,268.1,637.9,268.5,637.9,268.5z"/>
		</g>
		<g>
			<g>
				<path class="st40" d="M618.6,279c-10.5-0.3-18.8-5.6-18.6-14.8c0.2-9.3,8.9-16.6,19.4-16.3c10.5,0.3,18.8,8,18.6,17.2
					C637.8,274.4,629.1,279.3,618.6,279z"/>
			</g>
			<g>
				
					<ellipse transform="matrix(2.392283e-02 -0.9997 0.9997 2.392283e-02 335.8774 880.531)" class="st40" cx="618.9" cy="268.3" rx="16.8" ry="19"/>
			</g>
			<g>
				<path class="st39" d="M605.6,256.2c-3.4,2.9-5.6,7-5.7,11.6c-0.2,9.3,8.1,17,18.6,17.2c5.2,0.1,9.9-1.6,13.4-4.5L605.6,256.2z"
					/>
			</g>
			<g>
				
					<ellipse transform="matrix(2.393810e-02 -0.9997 0.9997 2.393810e-02 335.8681 880.5267)" class="st41" cx="618.9" cy="268.3" rx="16" ry="18.1"/>
			</g>
			<g>
				
					<ellipse transform="matrix(2.394525e-02 -0.9997 0.9997 2.394525e-02 335.8637 880.5247)" class="st42" cx="618.9" cy="268.3" rx="12.9" ry="14.6"/>
			</g>
			<g>
				<path class="st40" d="M633.4,268.6c0-0.3,0-0.6,0-0.9c-0.7,6.7-7.1,11.8-14.8,11.6s-13.9-5.6-14.2-12.3c0,0.3-0.1,0.6-0.1,0.9
					c-0.2,7.1,6.2,13,14.3,13.2C626.6,281.3,633.3,275.7,633.4,268.6z"/>
			</g>
			<g>
				<g>
					<path class="st40" d="M621.7,269.3l-3-2.8c-2.9,0.7-8.2,1.9-12.5,2.9c1.1,3.2,3.7,5.8,7.1,7.3L621.7,269.3z"/>
				</g>
				<g>
					<path class="st40" d="M617,277.7c0.5,0.1,1,0.1,1.4,0.1c3.5,0.1,6.7-1.1,9.1-3l-4.9-4.5L617,277.7z"/>
				</g>
				<g>
					<path class="st40" d="M615.5,263.6l-5.6-5.2c-1.9,1.7-3.6,3.5-4,5.9L615.5,263.6z"/>
				</g>
			</g>
			<g>
				<path class="st39" d="M618.4,256.9c8,0.2,14.4,6.1,14.3,13.2c0,1.4-0.3,2.8-0.9,4.1c1-1.7,1.6-3.6,1.6-5.6
					c0.2-7.1-6.2-13-14.3-13.2c-6.4-0.2-11.9,3.4-14,8.4C607.6,259.6,612.7,256.8,618.4,256.9z"/>
			</g>
		</g>
		<g>
			<path class="st39" d="M600,264.2c0,1.4-0.2,2.4,0.2,3.7c0.4-1.4,1.3-5.4,1.3-5.4l1.4-3.2l1.2-1l2-1.5l0.2-4.7
				C602.6,255,600.1,259.3,600,264.2z"/>
		</g>
	</g>
	<g>
		<g>
			<path class="st39" d="M636.8,263.7l0.1-1c0-0.1,0.1-0.2,0.2-0.2l0.1,0c0.1,0,0.2,0.1,0.2,0.3l-0.1,1c0,0.1-0.1,0.2-0.2,0.2
				l-0.1,0C636.9,264,636.8,263.8,636.8,263.7z"/>
		</g>
		<g>
			<path class="st39" d="M635.1,260.1l0.1-1.7c0-0.2,0.1-0.3,0.3-0.3l0.2,0c0.1,0,0.3,0.1,0.3,0.3l-0.1,1.7c0,0.2-0.1,0.3-0.3,0.3
				l-0.2,0C635.2,260.3,635.1,260.2,635.1,260.1z"/>
		</g>
		<g>
			<path class="st39" d="M632.8,256.9l0.1-1.7c0-0.2,0.1-0.3,0.3-0.3l0.3,0c0.2,0,0.3,0.1,0.3,0.3l-0.1,1.7c0,0.2-0.1,0.3-0.3,0.3
				l-0.3,0C632.9,257.2,632.8,257,632.8,256.9z"/>
		</g>
		<g>
			<path class="st39" d="M629.3,254.3l0.1-2c0-0.2,0.1-0.3,0.3-0.3l0.3,0c0.2,0,0.3,0.1,0.3,0.3l-0.1,2c0,0.2-0.1,0.3-0.3,0.3
				l-0.3,0C629.5,254.6,629.3,254.5,629.3,254.3z"/>
		</g>
		<g>
			<path class="st39" d="M625.8,252.6l0.1-2.3c0-0.2,0.1-0.3,0.3-0.3l0.3,0c0.2,0,0.3,0.1,0.3,0.3l-0.1,2.3c0,0.2-0.1,0.3-0.3,0.3
				l-0.3,0C626,252.9,625.8,252.8,625.8,252.6z"/>
		</g>
		<g>
			<path class="st39" d="M622.3,251.6l0.1-2.2c0-0.2,0.1-0.3,0.3-0.3l0.3,0c0.2,0,0.3,0.1,0.3,0.3l-0.1,2.2c0,0.2-0.1,0.3-0.3,0.3
				l-0.3,0C622.5,251.9,622.3,251.7,622.3,251.6z"/>
		</g>
		<g>
			<path class="st39" d="M618.8,251.2l0.1-2.3c0-0.2,0.1-0.3,0.3-0.3l0.3,0c0.2,0,0.3,0.1,0.3,0.3l-0.1,2.3c0,0.2-0.1,0.3-0.3,0.3
				l-0.3,0C619,251.5,618.8,251.4,618.8,251.2z"/>
		</g>
		<g>
			<path class="st39" d="M615.3,251.3l0.1-2.1c0-0.2,0.1-0.3,0.3-0.3l0.3,0c0.2,0,0.3,0.1,0.3,0.3l-0.1,2.1c0,0.2-0.1,0.3-0.3,0.3
				l-0.3,0C615.4,251.6,615.3,251.5,615.3,251.3z"/>
		</g>
		<g>
			<path class="st39" d="M611.8,252.1l0.1-2.1c0-0.2,0.1-0.3,0.3-0.3l0.3,0c0.2,0,0.3,0.1,0.3,0.3l-0.1,2.1c0,0.2-0.1,0.3-0.3,0.3
				l-0.3,0C611.9,252.4,611.8,252.2,611.8,252.1z"/>
		</g>
		<g>
			<path class="st39" d="M608.2,253.8l0.1-2.2c0-0.2,0.1-0.3,0.3-0.3l0.3,0c0.2,0,0.3,0.1,0.3,0.3l-0.1,2.2c0,0.2-0.1,0.3-0.3,0.3
				l-0.3,0C608.3,254.1,608.2,254,608.2,253.8z"/>
		</g>
	</g>
</g>
</svg>
